<?xml version="1.0" encoding="UTF-8"?>
<!DOCTYPE svg  PUBLIC '-//W3C//DTD SVG 20010904//EN'  'http://www.w3.org/TR/2001/REC-SVG-20010904/DTD/svg10.dtd'>
<svg width="392pt" height="286pt" version="1.0" viewBox="0 0 392 286" xmlns="http://www.w3.org/2000/svg">
<g transform="translate(0 286) scale(.1 -.1)">
<path d="m2994 2490c-257-12-465-30-674-56-287-37-434-52-635-64-223-14-872-75-1005-95-54-8-127-15-162-16s-87-8-116-17c-50-16-56-21-90-82-36-64-37-66-36-170 1-58 16-213 33-345 46-344 59-462 71-620 5-77 16-180 25-230 8-49 22-144 30-210 9-66 22-133 29-150 28-67 124-116 265-136 84-13 736-6 1086 11 110 5 304 14 430 20 603 28 1132 97 1267 166 46 24 98 75 120 118 20 39 21 51 15 301-8 355-51 786-101 1018-13 61-36 164-49 227-31 139-54 195-103 250-75 83-128 93-400 80zm307-103c36-24 72-79 90-139l12-37-298-298c-164-164-415-425-557-579-300-327-367-384-507-429-72-23-217-17-282 12-76 34-290 180-644 438-99 72-209 152-245 177s-119 93-186 150c-67 56-157 129-200 161-129 94-127 92-132 150-5 61 18 119 59 149 14 11 55 23 95 28 327 43 339 45 759 84 143 14 312 28 375 31 191 11 423 33 660 64 124 16 308 34 410 41 102 6 194 13 205 14 11 2 95 4 186 5 157 1 168 0 200-22zm157-432c57-271 99-676 109-1046 6-231 5-238-16-272-25-41-70-70-143-92-292-87-1061-146-2248-171-359-7-464 0-556 41-65 29-68 35-89 187-8 62-22 156-30 208-9 52-20 156-25 230-10 143-25 278-64 580-14 101-23 186-21 189 9 8 139-90 278-208 78-66 192-155 254-198 124-86 329-234 459-330 144-108 335-226 397-245 89-27 237-25 320 5 152 55 228 120 518 437 198 217 804 838 819 839 3 1 20-69 38-154z"/>
</g>
</svg>
