<svg version="1.0" viewBox="0 0 542 516" xmlns="http://www.w3.org/2000/svg"><path d="M32.5 29.3c-1.1 1.8-1.2 3.1-.5 5.9 1.6 5.7 4.9 21.1 8 37.3 3.3 17.5 4.4 22 9.8 41.6 5 17.9 6 20.9 12.9 38.4 6.8 17.2 9 21.7 18.2 37.5 10.2 17.4 15.5 28.3 18.1 37 4.4 14.8 6 17.2 10.1 15 2.6-1.4 2.4-2.8-1.6-15.4-4-12.2-10.3-25.3-20.8-43-8.1-13.8-11.1-20.2-17.9-38.1C60.3 123.2 52.1 94 48 71c-1.1-6.3-3.3-16.8-4.7-23.2-1.5-6.5-2.5-12-2.2-12.2.4-.4 4.9 0 29.6 2.9 7.3.8 29.6 2.2 49.5 3 20 .8 47.6 2.2 61.3 3 26.8 1.7 33.4 1.8 194 4.1C485.9 50.1 508 50.7 508 52.2c0 .5-6 10.5-13.4 22.1-20.9 33.2-28.2 48.1-34.4 70.7-5 18-10 35.2-15.2 52-2.6 8.5-5.4 18-6.1 21s-2.1 6.4-3.1 7.6c-2.1 2.4-2.3 4.5-.6 6.2 3.6 3.6 9.3-.8 10.8-8.6.7-3.1 2.9-11.1 5-17.7 4.4-13.8 8.4-27.5 14.5-49.5 8.8-31.6 13.2-41 36.5-78 16.5-26 17-27.3 13.2-32-1.5-1.8-3.3-2.4-10.2-3-4.7-.5-58-1.6-118.5-2.4-165.9-2.3-175.1-2.5-201.5-4.1-13.5-.8-41.1-2.1-61.5-3-20.3-.8-40.6-1.9-45-2.5-14.9-1.8-37-4-40.7-4-2.8 0-4.1.6-5.3 2.3zM192 244.6c-8.5.8-24.2 1.7-34.9 2.1-16.9.7-19.5 1-20.5 2.5-.8 1.3-.8 2.3 0 3.5 1.6 2.6 22.1 2.8 46.2.7 42.6-3.8 195.7-2.3 217.3 2.2 2.5.5 2.8 1.1 4.3 9.4 2.1 11.7 8.8 34.7 13.2 45.7 1.9 4.8 8.6 19.4 14.8 32.3 6.3 12.9 13.2 27.5 15.4 32.5 12.7 28.5 33 71.9 39.8 85.1l6.3 12.1-4.6.7c-6.5.9-19.8.7-33.8-.4-24.1-2-95.7-3.9-165.5-4.5-62.7-.6-78.2-.4-126 1.4-51.5 2-78.9 3.7-99.5 6-4.9.5-12.1 1.2-15.9 1.6l-6.8.6 2.1-3.3c12.4-19 19.3-35.6 26-62.3 2.7-11 5.9-23.6 7.1-28s3.2-12.2 4.6-17.2c3.6-13.8 10.8-38.8 16.4-56.3 2.6-8.5 5.2-17.1 5.5-19 .4-1.9 1.4-4.7 2.1-6.2 1.7-3.3 1.8-7 .2-8.6-2.4-2.4-7-.8-7.3 2.5-.2 2-1.5 6.6-8.6 29.3-10 32.2-13.8 46.2-25.5 92-9.6 37.8-12.9 46.3-26.4 67.4-11.2 17.7-8.2 19.7 24 16.1 25.6-2.9 50.7-4.5 106.5-6.6 47.3-1.7 65.8-1.9 119-1.4 73.6.6 120.7 1.9 157.3 4.1 30.4 1.9 50.1 1.6 54.9-.9 5.1-2.7 5-4.5-1.4-16.4-7.6-14.1-29.8-61.4-48.5-103-3.4-7.6-7.8-16.9-9.8-20.8-4.7-9-13.7-28.6-16.1-35-4.8-13-10.8-35.5-12.3-46.6-1.2-8.5-5.1-10.5-24-11.9-41-3.1-166.1-4-195.6-1.4z" style="stroke:#727272;stroke-width:20"/><path d="M242.5 295c-76.3.8-102 1.7-103.6 3.6-1.5 1.8-.2 5.2 2.3 6 1.1.3 22.2.1 46.7-.6 46.6-1.2 154.5-1.1 157.1.3 2.6 1.3 5.4-1.5 4.6-4.6-1.4-5.6-5.6-5.8-107.1-4.7zM215.5 341.1c-8.8 1-33.3 2.5-54.5 3.4-22.3 1-39 2.1-39.7 2.7-1.8 1.4-1.6 4.3.3 5.8 1.2 1.1 8.7 1 40.7-.3 45-1.9 73.5-4.7 75.5-7.4 1.6-2.2 1.5-2.8-.4-4.7-1.8-1.9-1.3-1.9-21.9.5zM330 375.5c-25.5 1.3-44.3 2.4-85.7 4.9-11.7.7-19.7 1.6-20.4 2.3s-.9 2.2-.5 3.7c.6 2.6.8 2.6 9.9 2.6 5 0 18-.7 28.7-1.5s30.3-1.9 43.5-2.5 32.6-1.5 43-2c10.5-.5 24.2-1 30.6-1 12.7 0 15.3-.9 14.7-5.1l-.3-2.4-18.5-.1c-10.2-.1-30.4.4-45 1.1z" style="stroke:#727272;stroke-width:20"/></svg>