<svg version="1.0" viewBox="0 0 418 374" xmlns="http://www.w3.org/2000/svg"><path d="M102 22.5C89.4 25.3 79.3 29 65.5 35.9 51.1 43 24.7 59.8 23 62.9c-1 2 1.2 6.1 3.4 6.1.6 0 3.9-1.9 7.1-4.3 24.9-18 52.1-30.9 72.9-34.6 42-7.5 69.9 24.5 80.1 91.9 4.2 28.1 6.4 77.6 4.6 102-.6 8-1.6 25.1-2.1 38-.6 12.9-1.5 27.5-2 32.5-1 9.7-.2 12.7 4 14 4.1 1.3 4.7-.6 5.4-19.2 2.3-62.9 4.9-88.6 11.7-117.3 12.7-54 35.1-87.9 68.2-103.5 14.2-6.7 22.5-8.6 41.3-9.2 17.7-.6 26.4.2 44.2 4.4 14 3.2 17.1 3.4 18.6 1 1.7-2.7-.4-5-6-6.5-46.7-12.4-83.1-9.7-112.1 8.4-9.3 5.8-22.3 18-29.7 27.8-12.9 17.2-22.9 39.3-30.2 66.6l-2.8 10.5-1.7-20.2C191.6 75.6 172 34.8 136.3 23.4c-6.9-2.2-26.2-2.7-34.3-.9z" style="stroke:#727272;stroke-width:20"/></svg>