<?xml version="1.0" encoding="UTF-8"?>
<!DOCTYPE svg  PUBLIC '-//W3C//DTD SVG 20010904//EN'  'http://www.w3.org/TR/2001/REC-SVG-20010904/DTD/svg10.dtd'>
<svg width="418pt" height="374pt" version="1.0" viewBox="0 0 418 374" xmlns="http://www.w3.org/2000/svg">
<g transform="translate(0 374) scale(.1 -.1)">
<path d="m3020 3514c-14-2-59-9-100-15-196-28-337-77-472-164-177-115-302-241-384-384l-51-90-41 65c-37 57-45 65-70 62-23-2-28-8-30-36-3-32-5-34-35-28-193 35-490 41-627 12-241-51-390-115-555-238-237-178-324-297-397-545-19-66-23-101-23-228 0-135 2-154 22-190 115-213 461-267 758-117 157 78 259 172 407 372 152 206 200 283 274 435 81 167 113 207 194 242 30 13 68 30 84 39 16 8 29 13 30 12 1-3 24-47 65-123 144-267 252-620 296-969 17-133 23-517 10-633-24-221-62-433-112-623-27-107-25-140 11-140 13 0 29 6 35 13 27 34 106 408 137 652 26 201 23 586-5 781-50 354-141 644-297 956l-34 67 52 17c42 14 72 16 162 10 239-13 377-27 516-52 377-66 513-84 655-84 156 0 247 15 321 53 233 118 195 409-85 669-109 101-226 154-404 183-95 15-267 26-307 19zm260-95c197-25 294-71 426-203 127-128 175-214 177-322 2-54-3-77-18-104-48-81-169-120-375-120-122 0-270 20-660 89-117 21-277 36-496 48-112 5-168 0-228-23-28-11-19 33 26 119 75 146 294 342 483 432 82 38 240 75 430 99 36 4 121-1 235-15zm-1565-560c115-13 145-23 179-58l28-29-71-32c-101-47-135-89-230-281-60-123-108-203-192-319-200-278-272-352-420-434-118-65-199-87-324-88-170-2-282 42-342 133-27 41-28 47-28 173 1 154 21 237 91 384 55 113 133 200 284 313 166 125 292 181 515 230 95 20 369 25 510 8z"/>
</g>
</svg>
