<?xml version="1.0" encoding="UTF-8"?>
<!DOCTYPE svg  PUBLIC '-//W3C//DTD SVG 20010904//EN'  'http://www.w3.org/TR/2001/REC-SVG-20010904/DTD/svg10.dtd'>
<svg width="448pt" height="288pt" version="1.0" viewBox="0 0 448 288" xmlns="http://www.w3.org/2000/svg">
<g transform="translate(0 288) scale(.1 -.1)">
<path d="m3459 2540c-163-20-310-64-442-132-106-55-159-124-127-163 21-25 45-17 78 24 53 66 234 143 417 177 129 24 389 24 470 0 123-36 203-113 248-234 29-82 36-291 12-398-35-158-160-346-332-501-285-255-632-459-983-576-313-105-297-102-545-102-191 1-232 4-312 23-141 34-197 58-257 113-122 111-116 235 19 424 107 151 231 239 422 300 86 28 107 43 101 71-7 38-32 38-138 3-238-77-415-228-525-447-46-93-60-158-46-222 45-210 225-314 606-350 141-13 323-1 444 30 140 36 464 151 569 202 442 217 832 542 986 822 69 125 101 301 86 476-14 153-59 259-148 342-96 90-188 119-392 123-80 2-175 0-211-5z"/>
<path d="m1855 2124c-317-48-558-140-803-306-135-91-367-321-464-458-309-438-323-827-35-961 235-108 751-29 940 145 51 47 55 57 31 80-23 23-37 20-85-19-119-100-297-156-540-171-258-15-405 50-455 199-25 75-15 227 21 327 82 226 276 497 478 670 272 233 568 363 946 416 141 19 375 15 471-10 137-35 219-96 275-208 29-59 35-81 35-136 0-249-167-469-445-587-93-39-105-48-105-77 0-38 35-40 117-7 316 124 513 378 513 659 0 182-114 345-286 409-132 50-409 66-609 35z"/>
</g>
</svg>
