<svg xmlns="http://www.w3.org/2000/svg" viewBox="0 0 1080 720"><g fill-opacity="0.0"><path d="M396.32 513.43c-4.51-7.38-4.18-18.7-5.53-28.67l-.83 3.07s-.44.26-1.26.55c-1.02.37-2.62.81-4.72.96 0-.05.67-3.68.67-3.73-.37.13-.91.27-1.61.39-2.54.43-7.15.54-13.08-1.91h-.01c-.12-.05-.24-.1-.36-.16-.4-.16-.78-.33-1.16-.5-.5-.23-.98-.46-1.45-.7-.16-.07-.31-.16-.47-.25-.34-.18-.68-.37-1.03-.57-19.33-10.85-15.83-31.52-14.4-39.98 1.55-9.06-15.06-52.03 1.61-60.75 4.14-2.17 13.54-2.64 16.72-1.96h.02c1.4.32 2.71.83 3.91 1.46 1.22.66 2.34 1.45 3.36 2.31-4.07-9.52-6.73-25.17-7.96-44.5-1.23-19.45 5.08-77.77 12.22-94.31 3.33-7.73 8.41-17.33 14.18-26.83 1.61-3.72 3.51-6.87 5.83-9.26.06-.06.11-.12.17-.18 4.93-7.41 10.09-14.32 14.94-19.71.09-.11.19-.21.29-.32 14.19-15.62 35.91-28.35 57.02-28.35 7.76 0 16.73-1.47 26.51-3.62 8.98-7.06 16.12-13.66 20.79-15.64 10.88-4.6 38.93-19.67 60.7-7.95 4.96 2.67 9.79 4.98 14.41 7.15 6.48.31 12.86 1.16 19.08 2.68.34.09-.7 2.18-2.43 5.31 6.77 3.54 12.61 7.35 17.15 12.33 42.52 16.57 70.21 71.59 80.96 116.32.96 3.95 1.87 8.1 2.73 12.45 12.07 61.22 2.47 83.84-3.71 90.86-1.07 1.21-2.12 3.22-3.14 5.69 1.07-.99 2.26-1.92 3.57-2.68 4.15-2.46 9.49-3.38 15.9.16 16.47 9.1.77 51.84 2.1 60.93 1.34 9.1-2.15 39.59-20.75 42.11-.05.01-.11.01-.16.02-4.89.64-8.3-.03-11.36-2.49-.83-.67-1.64-1.47-2.44-2.42 0 0-5.14 20.33-10.84 37.97 0 .02-.01.03-.01.04-2.1 4.25-4.36 8.42-6.73 12.52-14.57 25.14-33.98 43.39-58.14 59.19-5.11 3.35-10.4 6.6-15.84 9.64-22.48 8.75-47.45 14.24-64.22 14.24-20.59 0-38.587 1.27-65.59-15.751l-75.61-85.159z" fill-rule="evenodd"/><path d="m479.96 508.7s50.33 37.21 115.66-2.64l-115.66 2.64z"/></g><path d="m614.96 369.99c0 2.281-2.171 4.13-4.85 4.13s-4.85-1.849-4.85-4.13 2.171-4.13 4.85-4.13 4.85 1.849 4.85 4.13z" fill-rule="evenodd"/><path d="M638.83 365.31l-1.55-1.65-1.76-1.43c-2.43-1.79-5.12-3.11-7.85-4.23-2.73-1.14-5.52-2.02-8.4-2.76-3.28-1.14-6.58-1.4-9.87-1.6a64.57 64.57 0 0 0-9.93.34c-1.65.19-3.29.45-4.92.84a23.86 23.86 0 0 0-2.42.72l-1.18.49-1.11.56c-2.91 1.58-5.69 3.4-8.09 5.65 2.68-1.89 5.53-3.49 8.52-4.75l1.12-.47 1.11-.38c.76-.21 1.53-.4 2.33-.52 1.57-.3 3.18-.47 4.79-.58 3.22-.21 6.47-.25 9.69-.03 3.2.2 6.46.58 9.36 1.56l.08.03.04.01c2.76.66 5.53 1.57 8.22 2.56 2.68 1.02 5.31 2.21 7.67 3.76.61.37 1.14.82 1.7 1.25l1.54 1.45a35.65 35.65 0 0 0 3.26 3.01c2.31 1.83 4.77 3.51 7.48 4.61-2.52-1.47-4.82-3.28-6.88-5.29l-2.95-3.15zM583 330.26c-8.41 1.6-8.02 7.79-8.02 7.79s31.17 2.49 41.46 2.53 41.12-1.04 41.12-1.04c-22.44-14.6-66.15-10.88-74.56-9.28zM472.03 364.6c-2.68-.07-4.89 1.77-4.95 4.09-.05 2.33 2.07 4.26 4.75 4.33s4.9-1.76 4.95-4.09-2.07-4.26-4.75-4.33zm-31.76 2.69c1.17-.92 2.27-1.92 3.32-2.98l1.56-1.44 1.72-1.23c2.4-1.53 5.05-2.69 7.76-3.67 2.71-.96 5.51-1.82 8.3-2.43l.05-.01.08-.03c2.92-.94 6.2-1.24 9.41-1.37 3.23-.14 6.48-.02 9.7.28l4.78.71c1.59.32 3.05.78 4.52 1.52 2.95 1.36 5.75 3.07 8.37 5.05-2.32-2.34-5.05-4.25-7.91-5.93-.72-.41-1.46-.79-2.26-1.13a21.1 21.1 0 0 0-2.4-.8c-1.62-.45-3.26-.74-4.91-.98a63.56 63.56 0 0 0-9.94-.6c-3.3.12-6.62.31-9.92 1.4-2.91.69-5.73 1.53-8.5 2.63-2.77 1.09-5.5 2.37-7.96 4.14-.63.41-1.2.93-1.79 1.42a26.56 26.56 0 0 0-1.57 1.64c-.94 1.1-1.96 2.12-3.01 3.13-2.11 2-4.44 3.78-7 5.22 1.38-.52 2.69-1.22 3.94-1.99 1.27-.78 2.49-1.63 3.66-2.55z"/><path d="M507.19 337.16s.53-6.32-7.84-8.15-51.98-6.69-74.76 7.67l41.09 2.06c10.29.21 41.51-1.58 41.51-1.58zm114.36 26.48l-.11-.05c-.11-.06-.24-.11-.29-.13-5.21-2.26-13.14-2.71-21.17-1.19l-.38.07-.01.01c-5.63 1.11-11.29 3.14-16.75 6.04-6.67 2.79-7.82 4.26-7.5 5.61.32 1.37 2.57 2.02 6.67 1.96a79.88 79.88 0 0 0 3.8.02 274.55 274.55 0 0 0 15.71 1.15l.33.02 2.37.09.85.02 1.46.05 1.03.02 1.22.02c.36.01.71.01 1.06.01.38.01.75.01 1.12.01h1.27l.69-.01c.45 0 .88-.01 1.32-.02.2 0 .42 0 .62-.01l1.34-.04c.19 0 .36-.01.55-.01l1.8-.07.34-.02 3.77-.27c12.99-1.21 22.12.5 24.61 1.06l.46-1.91c-4.99-1.31-12.61-5.36-18.73-8.6l-7.45-3.83m-32.12 9.97c-3.91-.49-5.51-1.33-4.82-2.59.57-1 9.87-4.62 13.42-5.97a9.95 9.95 0 0 0-.71 3.36c-.09 2.32.67 4.61 2.11 6.54l-10-1.34m28.68 1.66l-.82.03-.8.04-1.38.04c-.16 0-.31 0-.46.01-2.58.05-5.32.04-8.21-.03-.07 0-.14-.01-.21-.01l-1.94-.06-.72-.03-1.29-.05c-2-1.82-3.1-4.26-3.01-6.73.05-1.55.56-3.04 1.46-4.36.18-.03.37-.06.55-.1.23-.03.44-.07.66-.11.25-.04.52-.08.77-.11.21-.02.42-.05.63-.08.27-.04.54-.07.81-.1l.56-.06.92-.08c.15-.02.3-.03.45-.04.39-.03.78-.05 1.16-.07.06 0 .12-.01.18-.01 4.09-.16 7.9.24 11.01 1.19a2.77 2.77 0 0 1 .16.06c.27.07.52.16.76.25a4.28 4.28 0 0 1 .43.17c.1.03.2.06.3.1.68 1.29 1 2.66.95 4.1-.07 2.26-1.11 4.39-2.92 6.04m14.02-.73c-2.9-.01-6.12.11-9.65.43l-1.59.13c1.29-1.71 2.02-3.71 2.1-5.8v-.01c.03-.99-.1-1.99-.36-2.96l5.46 2.86 3.56 1.88c1.37 1.24 2.49 2.81.48 3.47z"/><path d="M499.56 375.68c3.9.13 6.05-.48 6.41-1.8.37-1.37-.74-2.9-7.28-5.88-5.46-3.11-11.07-5.33-16.68-6.6l-.01-.01-.37-.09c-7.53-1.65-14.98-1.51-20.17.32-.35.12-.7.25-1.04.4l-.1.04c-.06.03-.13.04-.19.07l-.15.06c-2 .9-4.68 2.27-7.51 3.71-6.19 3.18-13.9 7.13-18.92 8.35l.42 1.9c2.5-.51 11.67-2.03 24.63-.48a88.05 88.05 0 0 0 3.76.36l.34.03c3.54.28 7.48.4 11.74.4l4.95-.05c7.03-.14 13.11-.56 15.9-.79 1.42.07 2.91.1 4.27.06m-40.73-1.95c-3.49-.41-6.67-.61-9.56-.68-2.13-.7-.91-2.33.52-3.59l3.57-1.82 5.53-2.78c-.29.99-.45 2.01-.44 3.05.03 2.15.72 4.21 1.98 5.99l-1.6-.17m20.17.73l-1.08.02-.97.02-1.22.01h-3.07l-2.02-.03-.94-.03-1.05-.03-.92-.04-1.02-.04-.86-.04a33.18 33.18 0 0 1-1.02-.05 19.07 19.07 0 0 1-.8-.05l-.84-.06c-1.77-1.73-2.76-3.94-2.79-6.25-.01-1.46.36-2.89 1.07-4.18.05-.02.11-.04.15-.06.54-.21 1.1-.39 1.69-.56.08-.02.16-.04.24-.07.6-.15 1.23-.3 1.88-.42.08-.01.15-.02.22-.04a32.97 32.97 0 0 1 2.09-.28c.06-.01.11-.01.16-.01a28.4 28.4 0 0 1 2.29-.15h.07c.79-.02 1.6-.02 2.42 0 .03 0 .06 0 .1.01a42.59 42.59 0 0 1 2.47.16c.06.01.13.01.2.02a54.91 54.91 0 0 1 2.46.3c.09.01.17.02.26.04a52.99 52.99 0 0 1 2.46.45c.07.01.13.02.2.04.87 1.37 1.34 2.91 1.36 4.5.03 2.54-1.14 5-3.19 6.82m2.85-.21c1.5-1.94 2.31-4.25 2.29-6.63-.02-1.18-.24-2.34-.65-3.44 3.53 1.46 12.74 5.37 13.28 6.42.67 1.3-.95 2.11-4.88 2.52l-10.04 1.13zm247.12 3.88c-5.8-3.18-11.68-3.67-17.12-1.52 6.17-8.78 13.82-32.6 2.4-90.22-12.08-60.99-34.45-83.02-35.15-83.7l17.57 11.15-18.43-22.33 10.61 3.07s1.12-14.52-21.77-24.56c0 0 9.07-8.1 23.3.69-.38-.63-13.75-22.53-39.35-17.58 0 0 1.89-9.83 9.85-9.83 0 0-6.35-6.49-18.91-4.82l5.86-6.69-23.17 2.23 5.59-9.49-15.08 3.63 12.01-14.23-35.45 8.37-3.07-12.28-24.28 12.56 4.75-17.31s-13.4-.56-24.28 6.42c-10.89 6.98-18.43 7.26-18.43 7.26l7.26-18.98-21.2 19.53 2.22-10.6-19.81 15.63 13.95-21.21-22.04 21.49.84-17.03-5.59 20.66-6.14 4.46 2.23-13.67-6.97 12.83-19.54-4.18s5.79 12.28 5.59 17.51c-.22 5.23-19.89 1.68-33.91 10.67 0 0 15.91-2.09 17.16.84 1.26 2.93-15.35 13.4-28.47 27.91-13.11 14.51-28.46 39.91-35.72 56.65-7.25 16.75-13.67 75.77-12.42 95.45 1.01 15.9 2.99 29.32 5.92 38.97-5.7-2.83-11.9-2.63-18.22.65-14.53 7.57-10.32 32.46-7.25 50.64.98 5.78 2 11.77 1.65 13.79-1.91 11.18-.89 37.38 14.38 46.97 3.81 2.39 7.34 3.84 10.51 4.66 7.6 1.9 11.93 2.63 14.36 2.88 27 60.586 50.388 84.071 86.72 104.63 29.811 16.868 42.62 19.93 63.57 19.93 23.35 0 45.87-8.53 66.24-19.93 5.44-3.04 10.73-6.29 15.84-9.64 24.16-15.8 43.57-34.05 58.14-59.19 2.37-4.1 4.63-8.27 6.73-12.52 0-.01.01-.02.01-.04 3.51-7.08 6.61-14.36 9.19-21.82 2.57-.31 7.2-1.12 15.26-3.14 3.21-.75 6.81-2.12 10.72-4.45 15.5-9.24 17.1-35.41 15.45-46.63-.3-2.03.85-7.98 1.95-13.73 3.51-18.11 8.3-42.9-6.06-50.81m-33.75-59.46l-2.46-2.55c-2.2-2.33-4.42-4.64-6.5-7.12 2.61 1.92 4.97 4.13 7.21 6.43.39.41.78.83 1.16 1.26l1.03 1.18a41.79 41.79 0 0 1 2.04 2.57l-.02.76-2.46-2.53m2.16 12.73l-.06 1.34-.02-.02c-2.21-2.32-4.41-4.64-6.49-7.12.58.44 1.17.89 1.73 1.36a28.3 28.3 0 0 1 .84.7l.83.73c.25.21.49.44.74.66l.87.82a28.33 28.33 0 0 0 .79.76c.25.26.52.51.77.77m-6.5-32.64c2.21 2.35 4.33 4.81 5.99 7.59l-6.69-6.92c-2.21-2.31-4.41-4.63-6.49-7.11 2.6 1.92 4.96 4.13 7.19 6.44m-80-117.03a13.5 13.5 0 0 0 .59-.47c1.11-.86 2.14-1.77 3.13-2.76 1.43-1.41 2.76-2.92 4.02-4.48l1.54-2.06c.45-.72.87-1.46 1.31-2.19l.68-1.1.56-1.15a70.54 70.54 0 0 1 1.12-2.32c-1.1 3.25-2.52 6.46-4.6 9.26-1.1 1.52-2.3 2.98-3.6 4.33a34 34 0 0 1-3.54 3.24c-.13.09-.26.19-.38.29-2.6 2.05-5.4 3.85-8.35 5.33-1.24.62-2.51 1.2-3.79 1.72a39.34 39.34 0 0 1-1.15.46 45.82 45.82 0 0 1-2.24.79 39.96 39.96 0 0 1-2.5.7c1.62-.61 3.21-1.25 4.75-2a53.07 53.07 0 0 0 2.73-1.34l.89-.47h.01l.95-.52c2.52-1.43 4.97-3.01 7.26-4.78l-.01-.01c.21-.15.41-.31.62-.47m-28.71-38.84c2.9.13 5.77.59 8.56 1.32 5.58 1.43 10.85 3.83 15.47 7.1-5.36-1.82-10.69-3.3-16.07-4.12-.66-.11-1.34-.17-2.02-.23-.68-.07-1.34-.18-2.01-.21-1.35-.06-2.7-.19-4.05-.16-2.68-.03-5.37.14-8.02.55-2.65.38-5.27.96-7.85 1.73-2.58.8-5.1 1.78-7.57 2.9-2.46 1.15-4.89 2.44-7.22 3.91a63.88 63.88 0 0 0-6.81 4.83c1.57-2.37 3.56-4.44 5.67-6.35 2.14-1.9 4.45-3.62 6.93-5.07 4.94-2.98 10.52-4.99 16.29-5.82 1.44-.23 2.89-.32 4.34-.43 1.46-.01 2.91-.08 4.36.05m-59.67 7.98c1.5-2.43 3.22-4.74 5.18-6.85 3.87-4.27 8.65-7.79 13.93-10.25 1.31-.63 2.68-1.14 4.04-1.66 1.38-.43 2.76-.91 4.19-1.21 2.81-.7 5.7-1.08 8.57-1.19 5.77-.23 11.5.56 16.85 2.35-5.64-.19-11.17-.08-16.55.69-.69.07-1.35.21-2.02.35-.66.13-1.33.21-1.99.37-1.31.33-2.64.6-3.92 1.02-2.57.74-5.1 1.67-7.52 2.82-2.43 1.13-4.77 2.44-7.02 3.93s-4.38 3.16-6.43 4.94c-2.02 1.82-3.97 3.74-5.78 5.82-1.85 2.06-3.54 4.25-5.14 6.57.82-2.71 2.14-5.25 3.61-7.7m-111.29 52.6l2.53-1.8c.84-.62 1.71-1.19 2.65-1.65l2.77-1.46c.94-.47 1.95-.78 2.92-1.17 1.95-.82 4.03-1.22 6.08-1.73 4.16-.74 8.46-.8 12.6-.05 4.12.77 8.18 2.25 11.43 4.83-3.96-1.11-7.87-1.65-11.77-1.79-3.89-.14-7.75.17-11.55.85-.93.2-1.87.44-2.82.65-.96.16-1.87.47-2.8.76s-1.88.52-2.8.86a98.26 98.26 0 0 1-2.75 1.02c-.45.19-.94.32-1.39.52l-1.35.61-2.75 1.18c-1.82.84-3.58 1.81-5.51 2.6 1.42-1.49 2.92-2.91 4.51-4.23m-5.69 18.58l2.5-2.75 1.27-1.37c.43-.46.91-.84 1.37-1.27l2.8-2.47c.95-.81 2-1.47 3.01-2.23 1-.73 2.03-1.45 3.13-2.04l3.28-1.84c4.51-2.18 9.33-3.73 14.29-4.41 4.93-.68 10.03-.6 14.78.76-4.89-.56-9.79-.19-14.54.74-4.74.95-9.34 2.53-13.66 4.66-1.07.56-2.11 1.16-3.18 1.74-.52.31-1.07.55-1.56.91l-1.51 1.02c-.99.68-2.04 1.29-3 2.05l-2.84 2.27c-.47.38-.97.73-1.41 1.14l-1.33 1.25-2.69 2.49c-1.72 1.74-3.33 3.58-5.08 5.33 1.41-2.01 2.83-4.04 4.37-5.98m-20.91 74.88c.93-.79 1.9-1.55 2.88-2.29-.06.41-.11.83-.16 1.24l-2.1 1.8-7.37 6.17c1.94-2.59 4.3-4.83 6.75-6.92m-4.31 16.32l1.35-1.11a58.33 58.33 0 0 1 1.48-1.16l1.27-.94c.42-.31.85-.6 1.28-.9l.15-.09c-.02.25-.05.49-.08.75-.03.03-.07.06-.1.09l-2.29 2.02-2.43 2.08-7.37 6.18c1.94-2.6 4.3-4.82 6.74-6.92M369.97 484.1l-.02-.01v-.01c-.12-.05-.24-.09-.36-.15a12.68 12.68 0 0 1-1.16-.5 19.06 19.06 0 0 1-1.45-.7c-.16-.07-.31-.16-.47-.25-.36-.19-.69-.38-1.03-.57a26.12 26.12 0 0 1-.99-.6c-12.05-7.56-12.16-31.27-10.83-39.04.55-3.18-.22-8.05-1.64-16.4-2.37-14.02-6.34-37.46 3.15-42.4 2.2-1.16 4.31-1.72 6.34-1.72 2.77 0 5.39 1.06 7.92 3.19 4.18 3.54 6.47 8.63 6.49 8.68l.54 1.23.23.12c.8 2.58 1.5 5.12 2.06 7.46l-.51 10.51v.1l-.03 5.13c0 5.25.09 13.63.52 23.85l-.14 3.34c-.05 2.19.02 5.91.3 10.69l.08 1.15c.78 9.64 2.12 19.3 4.07 28.8l.3 1.42c-6.43-.53-12.19-2.82-13.37-3.32m301.54 39.21c-17.34 31.75-44.86 54.14-77.21 71.5-15.86 8.51-32.14 14.79-52.1 16.4-17.42 1.41-35.16-3.002-50.65-9.952-10.69-4.8-22.056-11.018-31.46-18.006-22.68-16.851-35.09-28.492-49.43-53.351-11.499-19.932-19.7-41.161-22.5-63.991-2.95-24.09 2.36-47.94-.36-71.92l-.22-2.03-.42-.23.39-6.45c.92-8.11 1.57-16.14 1.43-21.99v-.03l1.37-18.15c1.02-6.56 2.67-13.58 5.07-20.17l-3.61 2.98c.02-.14.03-.28.04-.41l5.32-6.96c4.19-9.64 10.21-17.79 18.6-21.32 5.44-2.28 7.85-9.34 9.59-18.39l-8.05 4.16 8.79-8.4c1.41-8.56 2.55-18.38 5.09-27.5l-4.4 2.41 5.02-4.55c4.04-13.15 11.31-24.49 26.96-28l-4.63-3.17 8.06 2.55c4.48-.63 9.57-.69 15.39-.04 7.43.83 14.37 1.49 20.93 2.01l-4.47-5.36 9.24 5.72c8.75.62 16.72.98 23.99 1.16l3.4-4.65-1.29 4.7c8.72.16 16.41.06 23.28-.2l6.69-4.91-2.52 4.73c7.6-.36 14.1-.89 19.76-1.4l5.36-2.5-2.37 2.23 11.86-.97c18.98-1.11 52.47 8.37 65.31 44.09l-.84-16.74s9.49 7.53 11.44 16.74c.99 4.67-.09 10.9-.83 16.87l4.46 4.35-4.76-1.59c-.47 4.77-.44 9.18 1.41 12.19 2.24 3.64 7.07 11.2 11.72 23.36l3.91 2.87-2.89-.11c1.87 5.21 3.68 11.19 5.24 17.97l5.46 5.3-4.63-1.46c1.59 7.68 2.84 16.35 3.52 26.03l.48 6.8 3.05 6.34-.12 1.11-2.53-2 1.1 14.18-1.39 10.39-.06.38.02.38.7 14.26.98 25.74c0 26.91-7.79 53.39-20.69 77m55.86-95.86c-1.61 8.31-2.49 13.17-2.03 16.35 1.16 7.81.51 31.49-11.72 38.78-2.35 1.4-4.51 2.36-6.48 3 0 0-6.01 2.66-12.97 3.35.56-1.92 1.09-3.84 1.57-5.77a154.58 154.58 0 0 0 1.65-7.39c3.65-18.5 2.84-36.99 1.88-55.68l-.23-4.67c.85-4.45 2.43-12.11 4.4-19.44l.21-.11.57-1.22c.02-.04 2.07-4.31 5.7-7.67 4.75-4.37 9.75-5.03 15.27-2 9.38 5.16 4.87 28.51 2.18 42.47zm-161.79 90.16l-1.83.44-3.63.92-3.67.75-1.83.37-1.85.29c-4.9.86-9.87 1.32-14.83 1.51-9.94.43-19.9-.61-29.66-2.77-4.87-1.13-9.7-2.51-14.43-4.25-4.74-1.72-9.4-3.72-13.89-6.17 3.88 3.37 8.34 6.02 12.9 8.41 4.62 2.31 9.44 4.26 14.41 5.76 4.96 1.55 10.08 2.62 15.24 3.3 2.59.36 5.19.52 7.79.7l3.91.08c1.3.04 2.61-.05 3.91-.07 5.21-.22 10.42-.76 15.51-1.84l1.91-.38c.63-.14 1.26-.31 1.89-.46l6.93-1.89 2.41-.84 1.82-.69c9.72-3.59 18.87-8.55 27.03-14.73-9.24 4.41-18.61 8.23-28.24 11.03l-1.8.53zm-61.15-75.52l-.88 7.81c-.1 2.68-.04 5.48.84 8.29.87 2.83 2.56 5.33 4.76 7.24 2.19 1.92 4.82 3.19 7.53 3.94s5.53.97 8.32.71c5.65-.58 10.35-3.12 14.98-3.87 2.32-.7 4.77-1.22 7.19-1.35 1.21-.06 2.43-.01 3.53.36.55.18 1.07.46 1.48.88s.68 1 .8 1.64c.09-.64.01-1.34-.32-1.97-.32-.63-.84-1.16-1.42-1.57-1.18-.81-2.53-1.22-3.86-1.52-2.68-.56-5.37-.63-8.09-.47-5.45 1.08-10.05 3.45-14.66 3.88-4.59.43-9.49-.76-12.84-3.68-1.66-1.43-2.94-3.34-3.57-5.41-.67-2.09-.76-4.49-.66-6.9.12-2.43.47-4.9.84-7.43l1.13-7.55 2.67-15.07 2.89-15.03 1.24-15.41c-1.89 4.83-3.52 9.71-5.14 14.62-1.06 5.01-2.01 10.05-2.94 15.1l-2.68 15.14c-.42 2.53-.78 5.13-1.14 7.62zm57.6 28.26c1.58-.51 3.13-1.33 4.45-2.49 1.32-1.15 2.37-2.65 3.05-4.26.35-.8.56-1.64.77-2.47.12-.84.27-1.67.27-2.5.07-1.66-.14-3.27-.47-4.82-.72-3.09-2-5.94-3.79-8.47l.67 8.87-.01 2.1-.18 2.03c-.16 1.32-.45 2.59-.95 3.72-.94 2.28-2.66 4.1-5.03 5.41-2.36 1.3-5.17 2.15-8.18 2.79 2.95 1.01 6.23 1.07 9.4.09z"/></svg>
