<svg version="1.0" viewBox="0 0 404 330" xmlns="http://www.w3.org/2000/svg"><path d="M302 22.9079c-1.4.2-5.9.9-10 1.5-19.6 2.8-33.7 7.7-47.2 16.4-17.7 11.5-30.2 24.1-38.4 38.4l-5.1 9-4.1-6.5c-3.7-5.7-4.5-6.5-7-6.2-2.3.2-2.8.8-3 3.6-.3 3.2-.5 3.4-3.5 2.8-19.3-3.5-49-4.1-62.7-1.2-24.1 5.1-39 11.5-55.5 23.8001-23.7 17.8-32.4 29.7-39.7 54.5-1.9 6.6-2.3 10.1-2.3 22.8 0 13.5.2 15.4 2.2 19 11.5 21.3 46.1 26.7 75.8 11.7 15.7-7.8 25.9-17.2 40.7-37.2 15.2-20.6 20-28.3 27.4-43.5 8.1-16.7 11.3-20.7 19.4-24.2 3-1.3 6.8-3 8.4-3.9 1.6-.8 2.9-1.3 3-1.2.1.3 2.4 4.7 6.5 12.3 14.4 26.7 25.2 62 29.6 96.9 1.7 13.3 2.3 51.7 1 63.3-2.4 22.1-6.2 43.3-11.2 62.3-2.7 10.7-2.5 14 1.1 14 1.3 0 2.9-.6 3.5-1.3 2.7-3.4 10.6-40.8 13.7-65.2 2.6-20.1 2.3-58.6-.5-78.1-5-35.4-14.1-64.4-29.7-95.6l-3.4-6.7 5.2-1.7c4.2-1.4 7.2-1.6 16.2-1 23.9 1.3 37.7 2.7 51.6 5.2 37.7 6.6 51.3 8.4 65.5 8.4 15.6 0 24.7-1.5 32.1-5.3 23.3-11.8001 19.5-40.9001-8.5-66.9001-10.9-10.1-22.6-15.4-40.4-18.3-9.5-1.5-26.7-2.6-30.7-1.9m26 9.5c19.7 2.5 29.4 7.1 42.6 20.3 12.7 12.8 17.5 21.4 17.7 32.2.2 5.4-.3 7.7-1.8 10.4-4.8 8.1001-16.9 12.0001-37.5 12.0001-12.2 0-27-2-66-8.9001-11.7-2.1-27.7-3.6-49.6-4.8-11.2-.5-16.8 0-22.8 2.3-2.8 1.1-1.9-3.3 2.6-11.9 7.5-14.6 29.4-34.2 48.3-43.2 8.2-3.8 24-7.5 43-9.9 3.6-.4 12.1.1 23.5 1.5m-156.5 56c11.5 1.3 14.5 2.3 17.9 5.8l2.8 2.9-7.1 3.2001c-10.1 4.7-13.5 8.9-23 28.1-6 12.3-10.8 20.3-19.2 31.9-20 27.8-27.2 35.2-42 43.4-11.8 6.5-19.9 8.7-32.4 8.8-17 .2-28.2-4.2-34.2-13.3-2.7-4.1-2.8-4.7-2.8-17.3.1-15.4 2.1-23.7 9.1-38.4 5.5-11.3 13.3-20 28.4-31.3 16.6-12.5001 29.2-18.1001 51.5-23.0001 9.5-2 36.9-2.5 51-.8Z" style="stroke:#727272;stroke-width:20"/></svg>