<svg xmlns="http://www.w3.org/2000/svg" color-interpolation="auto" stroke="#0f172a" stroke-linecap="square" stroke-miterlimit="10" font-weight="400" font-family="Dialog" font-size="12" viewBox="0 0 1000 1000"><circle r="490" cx="500" cy="500" fill="none" stroke="none" fill-opacity="0" stroke-width="20" stroke-opacity="0" stroke-linecap="round"/><g stroke-linecap="round" stroke-width="20"><circle r="490" cx="500" cy="500" fill="#fff"/><path d="M500 1000V667M500 667 626.0606292 486.9667637M626.06062918 486.96676371l136.30692517-49.61166348M762.36755435 437.35510023l92.4740681 24.77835186" fill="none" stroke-width="35"/></g><path d="m762.36359159 437.3508467 54.91339714-78.42154554" fill="none" stroke-linecap="round" stroke-width="35"/><g stroke-linecap="round" stroke-width="35" fill="none"><path d="M626.0606 486.9668V341.912M626.03309853 341.89330582l54.91202843-78.42250394"/></g><path d="m626.0606 341.9119-54.91202843-78.42250394" fill="none" stroke-linecap="round" stroke-width="35"/><g stroke-linecap="round" stroke-width="35" fill="none"><path d="M500 667 373.93937083 486.9667637M373.93937082 486.9667637v-145.0548M373.93937082 341.9119637l54.91202843-78.42250394"/></g><path d="m373.9394 341.9119-54.91202843-78.42250394" fill="none" stroke-linecap="round" stroke-width="35"/><g stroke-linecap="round" stroke-width="35" fill="none"><path d="m373.92384535 486.94240895-136.30692517-49.6116635M237.61802447 437.33302324l-54.91202842-78.42250394"/></g><path d="m237.6311631 437.35489018-92.47363561 24.77996584" fill="none" stroke-linecap="round" stroke-width="35"/></svg>