<svg style="fill-opacity:1;color-rendering:auto;color-interpolation:auto;text-rendering:auto;stroke:#000;stroke-linecap:square;stroke-miterlimit:10;shape-rendering:auto;stroke-opacity:1;fill:#000;stroke-dasharray:none;font-weight:400;stroke-width:1;font-family:'Dialog';font-style:normal;stroke-linejoin:miter;font-size:12px;stroke-dashoffset:0;image-rendering:auto" width="1000" height="1000" xmlns="http://www.w3.org/2000/svg"><g style="fill:#000;fill-opacity:0;stroke-width:20;stroke-opacity:0;stroke-linecap:round;stroke:#000"><circle r="490" style="stroke:none" cx="500" cy="500" stroke="none" fill="none"/></g><g style="stroke-linecap:round;stroke-width:20"><circle r="490" style="fill:#fff" cx="500" cy="500"/><path transform="translate(500 1000)" style="fill:none;stroke-width:35" d="M0 0v-333"/><path transform="rotate(35 -807.72686659 1126.3987006)" style="fill:none;stroke-width:35" d="M0 0v-219.78"/><path transform="rotate(70 -34.69999188 690.53700169)" style="fill:none;stroke-width:35" d="M0 0v-145.0548"/><path transform="rotate(105 213.38659131 511.17014972)" style="fill:none;stroke-width:35" d="M0 0v-95.7362"/></g><g style="stroke-linecap:round;stroke-width:35"><path style="fill:none" d="M0 0v-95.7362" transform="rotate(35.001 -312.34693694 1427.59283953)"/></g><g style="stroke-linecap:round;stroke-width:35"><path style="fill:none" d="M0 0v-145.0548" transform="matrix(1 0 0 1 626.0606 486.9668)"/><path transform="rotate(35 -229.15696659 1163.70831362)" style="fill:none" d="M0 0v-95.7362"/></g><g style="stroke-linecap:round;stroke-width:35"><path style="fill:none" d="M0 0v-95.7362" transform="rotate(-35 855.23330245 -821.84932246)"/></g><g style="stroke-linecap:round;stroke-width:35"><path style="fill:none" d="M0 0v-219.78" transform="rotate(-35 1307.72686659 -459.3987006)"/><path transform="matrix(1 0 0 1 373.93937082 486.9667637)" style="fill:none" d="M0 0v-145.0548"/><path transform="rotate(35 -355.23341807 763.9480643)" style="fill:none" d="M0 0v-95.7362"/></g><g style="stroke-linecap:round;stroke-width:35"><path style="fill:none" d="M0 0v-95.7362" transform="rotate(-35 729.17270245 -422.03617872)"/></g><g style="stroke-linecap:round;stroke-width:35"><path style="fill:none" d="M0 0v-145.0548" transform="rotate(-70 534.67483804 -23.53809273)"/><path transform="rotate(-35 812.33058394 -158.14753406)" style="fill:none" d="M0 0v-95.7362"/></g><g style="stroke-linecap:round;stroke-width:35"><path style="fill:none" d="M0 0v-95.7362" transform="rotate(-105.001 286.60965493 127.50869012)"/></g></svg>