<?xml version="1.0" encoding="UTF-8"?>
<!DOCTYPE svg  PUBLIC '-//W3C//DTD SVG 20010904//EN'  'http://www.w3.org/TR/2001/REC-SVG-20010904/DTD/svg10.dtd'>
<svg width="470pt" height="470pt" version="1.0" viewBox="0 0 470 470" xmlns="http://www.w3.org/2000/svg">
<g transform="translate(0 470) scale(.1 -.1)">
<path d="m2165 4333c-294-24-646-149-905-320-499-329-811-825-901-1428-17-116-17-414 0-530 88-598 411-1108 906-1431 177-116 427-222 631-268 205-46 251-51 474-51 237 1 342 15 553 75 818 235 1400 957 1456 1807 71 1081-716 2019-1798 2143-80 9-323 11-416 3zm540-103c537-102 988-401 1278-845 173-267 275-549 308-855 18-162 6-437-25-585-129-611-509-1102-1061-1370-270-132-527-190-840-190-324 0-564 56-860 200-210 102-369 219-540 396-352 366-538 830-538 1339 1 315 60 571 198 855 290 596 871 1003 1535 1075 129 15 422 4 545-20z"/>
<path d="m2310 3884c-14-2-52-9-85-15-150-26-269-91-390-213-76-76-99-107-138-186-25-52-54-126-63-165-21-86-24-259-6-335 68-281 258-486 532-571 63-20 96-24 210-24 159 1 219 15 355 83 73 37 108 64 181 137 75 74 99 106 136 182 112 223 116 465 12 678-47 96-124 196-198 256-74 61-218 133-307 153-71 16-199 27-239 20zm217-99c196-46 358-176 448-360 81-164 95-331 42-498-70-218-231-377-455-450-98-31-278-31-382 1-115 36-195 85-286 176-223 224-263 547-102 820 90 153 242 265 423 311 69 18 237 18 312 0z"/>
<path d="m2136 3278c-18-25-7-53 24-63 44-14 71 53 31 75-28 15-38 13-55-12z"/>
<path d="m2654 3226c-12-31 0-61 27-64 36-4 55 21 41 53-13 28-59 35-68 11z"/>
<path d="m2226 2844c-54-53 60-169 159-162 37 3 40 5 43 35 3 28 0 33-25 39-77 17-95 27-109 59-7 18-21 35-29 39-22 8-21 8-39-10z"/>
<path d="m2334 2090c-133-19-316-106-481-229-185-138-567-544-602-640-29-77-112-71 1029-71 904 0 1019 2 1030 15 22 26-13 145-82 280-173 341-380 554-607 625-74 23-201 32-287 20zm283-105c150-54 288-174 412-360 82-122 191-335 191-371v-24h-930c-511 0-930 3-930 8 0 17 183 226 300 342 367 367 686 502 957 405z"/>
</g>
</svg>
