<svg version="1.0" viewBox="0 0 498 412" xmlns="http://www.w3.org/2000/svg"><path d="M430.3 51.9c-10.6 5.9-22.8 14.3-41.3 28.6-9 7.1-21.6 16.7-28 21.4-24.2 17.9-64.3 49.7-83.5 66.1-26 22.4-40.3 35.5-66.6 61.6-14.4 14.3-22.2 21.4-23.6 21.4-1.2 0-3.1 1.2-4.3 2.7-6.3 8-22.4 48.6-21.8 55.1.5 5.6 3.3 5.8 12 1.2 6.8-3.5 26-11.7 31.8-13.5 3.5-1.1 13.8-8.2 14.2-9.8.3-1.4 38.2-37.9 55.3-53.3 38.4-34.5 68.4-59.6 98.1-81.9C400.2 130.6 452 98 457.3 98c7.5 0 7.4-6.4-.4-17.5-1.6-2.2-4.5-8.7-6.5-14.5-7-20.3-7.7-20.8-20.1-14.1zm12.2 16.2c2.1 6.1 5.3 13.4 7.2 16.1 1.8 2.8 3.3 5.3 3.3 5.7s-3.4 2.4-7.6 4.4c-29.3 14.5-92.1 59.3-133.5 95.2-39.4 34.1-45.3 39.5-82.6 75.2-12.2 11.7-22.6 21.3-23.2 21.3-1.3 0-9.5-13.8-11.7-19.7-.9-2.3-1.4-5.3-1-6.7.6-2.3 42.6-43.9 62.6-61.9 30.2-27.1 74.6-63.2 108.5-88.2 6.6-4.9 19.7-14.8 29-22 9.4-7.3 19.9-15.1 23.5-17.6 7.9-5.2 20.3-12.8 21.1-12.9.3 0 2.3 5 4.4 11.1zM191.3 278.5c1.6 2.7 3.8 6.5 4.9 8.2l1.9 3.3-3.3 1.4c-8.5 3.9-23 9.7-23.3 9.4-.5-.5 7.9-22.7 11-29.2l2.8-5.8 1.6 3.8c.8 2.2 2.8 6.1 4.4 8.9zM69.2 242.2c-2.1 2.1-1.4 3.4 4.8 8.7 7.2 6.2 9 9.4 9 15.6 0 9.7-6 16.4-23 25.5-27.4 14.8-36.9 26.7-35.8 44.4.7 10.2 4.3 17.2 13.7 26.7 8 8.1 17.3 13.6 29.6 17.5 8.3 2.6 26.7 2.6 34.5 0 20.4-6.8 38.2-23.7 50.1-47.5 4.4-8.9 4.8-11.5 1.8-13.1-3.2-1.8-4.6-.6-8.2 7.2-10.1 21.8-26.8 38.9-44 44.8-8.9 3-20.6 3.7-28.7 1.6-27.7-7.1-45.8-28.7-39.6-47.4 3.2-9.5 11.6-16.7 33-28.3 12.2-6.6 18.7-12.3 22.2-19.4 2.3-4.8 2.6-6.4 2.3-13.3-.5-9.3-2.9-13.8-11-20.2-5.2-4.1-8.5-5-10.7-2.8z" style="stroke:#727272;stroke-width:20"/></svg>