<?xml version="1.0" encoding="UTF-8"?>
<!DOCTYPE svg  PUBLIC '-//W3C//DTD SVG 20010904//EN'  'http://www.w3.org/TR/2001/REC-SVG-20010904/DTD/svg10.dtd'>
<svg width="498pt" height="412pt" version="1.0" viewBox="0 0 498 412" xmlns="http://www.w3.org/2000/svg">
<g transform="translate(0 412) scale(.1 -.1)">
<path d="m4303 3601c-106-59-228-143-413-286-90-71-216-167-280-214-242-179-643-497-835-661-260-224-403-355-666-616-144-143-222-214-236-214-12 0-31-12-43-27-63-80-224-486-218-551 5-56 33-58 120-12 68 35 260 117 318 135 35 11 138 82 142 98 3 14 382 379 553 533 384 345 684 596 981 819 276 209 794 535 847 535 75 0 74 64-4 175-16 22-45 87-65 145-70 203-77 208-201 141zm122-162c21-61 53-134 72-161 18-28 33-53 33-57s-34-24-76-44c-293-145-921-593-1335-952-394-341-453-395-826-752-122-117-226-213-232-213-13 0-95 138-117 197-9 23-14 53-10 67 6 23 426 439 626 619 302 271 746 632 1085 882 66 49 197 148 290 220 94 73 199 151 235 176 79 52 203 128 211 129 3 0 23-50 44-111zm-2512-2104c16-27 38-65 49-82l19-33-33-14c-85-39-230-97-233-94-5 5 79 227 110 292l28 58 16-38c8-22 28-61 44-89z"/>
<path d="m692 1698c-21-21-14-34 48-87 72-62 90-94 90-156 0-97-60-164-230-255-274-148-369-267-358-444 7-102 43-172 137-267 80-81 173-136 296-175 83-26 267-26 345 0 204 68 382 237 501 475 44 89 48 115 18 131-32 18-46 6-82-72-101-218-268-389-440-448-89-30-206-37-287-16-277 71-458 287-396 474 32 95 116 167 330 283 122 66 187 123 222 194 23 48 26 64 23 133-5 93-29 138-110 202-52 41-85 50-107 28z"/>
</g>
</svg>
